<svg xmlns="http://www.w3.org/2000/svg" xmlns:xlink="http://www.w3.org/1999/xlink" width="500" zoomAndPan="magnify" viewBox="0 0 375 374.999991" height="500" preserveAspectRatio="xMidYMid meet" version="1.0"><defs><clipPath id="22d05c8373"><path d="M 115.875 112.5 L 259.125 112.5 L 259.125 262.5 L 115.875 262.5 Z M 115.875 112.5 " clip-rule="nonzero"/></clipPath></defs><g clip-path="url(#22d05c8373)"><path fill="#2b2b2b" d="M 233.25 127.507812 L 226.285156 127.507812 L 226.285156 117.105469 C 226.285156 114.605469 224.25 112.589844 221.769531 112.589844 C 219.265625 112.589844 217.25 114.625 217.25 117.105469 L 217.25 127.523438 L 155.15625 127.523438 L 155.15625 117.105469 C 155.15625 114.605469 153.121094 112.589844 150.636719 112.589844 C 148.136719 112.589844 146.121094 114.625 146.121094 117.105469 L 146.121094 127.523438 L 141.730469 127.523438 C 127.449219 127.523438 115.875 139.101562 115.875 153.382812 L 115.875 236.554688 C 115.875 250.835938 127.449219 262.410156 141.730469 262.410156 L 233.25 262.410156 C 247.53125 262.410156 259.105469 250.835938 259.105469 236.554688 L 259.105469 153.382812 C 259.125 139.101562 247.53125 127.507812 233.25 127.507812 Z M 217.230469 132.285156 L 217.230469 141.675781 C 217.230469 144.179688 219.265625 146.195312 221.75 146.195312 C 224.25 146.195312 226.265625 144.160156 226.265625 141.675781 L 226.265625 132.640625 C 229.160156 134.320312 231.121094 137.457031 231.121094 141.042969 C 231.121094 146.398438 226.769531 150.75 221.414062 150.75 C 216.054688 150.75 211.703125 146.398438 211.703125 141.042969 C 211.742188 137.175781 213.984375 133.855469 217.230469 132.285156 Z M 146.101562 132.453125 L 146.101562 141.675781 C 146.101562 144.179688 148.136719 146.195312 150.617188 146.195312 C 153.121094 146.195312 155.136719 144.160156 155.136719 141.675781 L 155.136719 132.453125 C 158.21875 134.078125 160.308594 137.308594 160.308594 141.023438 C 160.308594 146.378906 155.957031 150.730469 150.601562 150.730469 C 145.242188 150.730469 140.890625 146.378906 140.890625 141.023438 C 140.929688 137.308594 143.039062 134.078125 146.101562 132.453125 Z M 250.070312 236.535156 C 250.070312 245.8125 242.527344 253.335938 233.269531 253.335938 L 141.730469 253.335938 C 132.453125 253.335938 124.929688 245.796875 124.929688 236.535156 L 124.929688 167.644531 L 250.070312 167.644531 Z M 250.070312 236.535156 " fill-opacity="1" fill-rule="nonzero"/></g><path fill="#2b2b2b" d="M 155.285156 193.726562 L 142.757812 193.726562 C 141.75 193.726562 140.929688 192.90625 140.929688 191.898438 L 140.929688 179.371094 C 140.929688 178.363281 141.75 177.539062 142.757812 177.539062 L 155.285156 177.539062 C 156.292969 177.539062 157.117188 178.363281 157.117188 179.371094 L 157.117188 191.898438 C 157.097656 192.90625 156.292969 193.726562 155.285156 193.726562 Z M 155.285156 193.726562 " fill-opacity="1" fill-rule="nonzero"/><path fill="#2b2b2b" d="M 155.285156 219.414062 L 142.757812 219.414062 C 141.75 219.414062 140.929688 218.59375 140.929688 217.585938 L 140.929688 205.058594 C 140.929688 204.050781 141.75 203.230469 142.757812 203.230469 L 155.285156 203.230469 C 156.292969 203.230469 157.117188 204.050781 157.117188 205.058594 L 157.117188 217.585938 C 157.097656 218.613281 156.292969 219.414062 155.285156 219.414062 Z M 155.285156 219.414062 " fill-opacity="1" fill-rule="nonzero"/><path fill="#2b2b2b" d="M 155.285156 245.121094 L 142.757812 245.121094 C 141.75 245.121094 140.929688 244.300781 140.929688 243.292969 L 140.929688 230.765625 C 140.929688 229.757812 141.75 228.9375 142.757812 228.9375 L 155.285156 228.9375 C 156.292969 228.9375 157.117188 229.757812 157.117188 230.765625 L 157.117188 243.3125 C 157.097656 244.300781 156.292969 245.121094 155.285156 245.121094 Z M 155.285156 245.121094 " fill-opacity="1" fill-rule="nonzero"/><path fill="#2b2b2b" d="M 180.976562 193.726562 L 168.449219 193.726562 C 167.441406 193.726562 166.617188 192.90625 166.617188 191.898438 L 166.617188 179.371094 C 166.617188 178.363281 167.441406 177.539062 168.449219 177.539062 L 180.976562 177.539062 C 181.984375 177.539062 182.804688 178.363281 182.804688 179.371094 L 182.804688 191.898438 C 182.804688 192.90625 181.984375 193.726562 180.976562 193.726562 Z M 180.976562 193.726562 " fill-opacity="1" fill-rule="nonzero"/><path fill="#2b2b2b" d="M 180.976562 219.414062 L 168.449219 219.414062 C 167.441406 219.414062 166.617188 218.59375 166.617188 217.585938 L 166.617188 205.058594 C 166.617188 204.050781 167.441406 203.230469 168.449219 203.230469 L 180.976562 203.230469 C 181.984375 203.230469 182.804688 204.050781 182.804688 205.058594 L 182.804688 217.585938 C 182.804688 218.613281 181.984375 219.414062 180.976562 219.414062 Z M 180.976562 219.414062 " fill-opacity="1" fill-rule="nonzero"/><path fill="#2b2b2b" d="M 180.976562 245.121094 L 168.449219 245.121094 C 167.441406 245.121094 166.617188 244.300781 166.617188 243.292969 L 166.617188 230.765625 C 166.617188 229.757812 167.441406 228.9375 168.449219 228.9375 L 180.976562 228.9375 C 181.984375 228.9375 182.804688 229.757812 182.804688 230.765625 L 182.804688 243.3125 C 182.804688 244.300781 181.984375 245.121094 180.976562 245.121094 Z M 180.976562 245.121094 " fill-opacity="1" fill-rule="nonzero"/><path fill="#2b2b2b" d="M 206.683594 193.726562 L 194.15625 193.726562 C 193.148438 193.726562 192.324219 192.90625 192.324219 191.898438 L 192.324219 179.371094 C 192.324219 178.363281 193.148438 177.539062 194.15625 177.539062 L 206.683594 177.539062 C 207.691406 177.539062 208.511719 178.363281 208.511719 179.371094 L 208.511719 191.898438 C 208.492188 192.90625 207.691406 193.726562 206.683594 193.726562 Z M 206.683594 193.726562 " fill-opacity="1" fill-rule="nonzero"/><path fill="#2b2b2b" d="M 206.683594 219.414062 L 194.15625 219.414062 C 193.148438 219.414062 192.324219 218.59375 192.324219 217.585938 L 192.324219 205.058594 C 192.324219 204.050781 193.148438 203.230469 194.15625 203.230469 L 206.683594 203.230469 C 207.691406 203.230469 208.511719 204.050781 208.511719 205.058594 L 208.511719 217.585938 C 208.492188 218.613281 207.691406 219.414062 206.683594 219.414062 Z M 206.683594 219.414062 " fill-opacity="1" fill-rule="nonzero"/><path fill="#2b2b2b" d="M 206.683594 245.121094 L 194.15625 245.121094 C 193.148438 245.121094 192.324219 244.300781 192.324219 243.292969 L 192.324219 230.765625 C 192.324219 229.757812 193.148438 228.9375 194.15625 228.9375 L 206.683594 228.9375 C 207.691406 228.9375 208.511719 229.757812 208.511719 230.765625 L 208.511719 243.3125 C 208.492188 244.300781 207.691406 245.121094 206.683594 245.121094 Z M 206.683594 245.121094 " fill-opacity="1" fill-rule="nonzero"/><path fill="#2b2b2b" d="M 232.390625 193.726562 L 219.863281 193.726562 C 218.855469 193.726562 218.035156 192.90625 218.035156 191.898438 L 218.035156 179.371094 C 218.035156 178.363281 218.855469 177.539062 219.863281 177.539062 L 232.390625 177.539062 C 233.398438 177.539062 234.21875 178.363281 234.21875 179.371094 L 234.21875 191.898438 C 234.203125 192.90625 233.378906 193.726562 232.390625 193.726562 Z M 232.390625 193.726562 " fill-opacity="1" fill-rule="nonzero"/><path fill="#2b2b2b" d="M 232.390625 219.414062 L 219.863281 219.414062 C 218.855469 219.414062 218.035156 218.59375 218.035156 217.585938 L 218.035156 205.058594 C 218.035156 204.050781 218.855469 203.230469 219.863281 203.230469 L 232.390625 203.230469 C 233.398438 203.230469 234.21875 204.050781 234.21875 205.058594 L 234.21875 217.585938 C 234.203125 218.613281 233.378906 219.414062 232.390625 219.414062 Z M 232.390625 219.414062 " fill-opacity="1" fill-rule="nonzero"/></svg>