<svg xmlns="http://www.w3.org/2000/svg" xmlns:xlink="http://www.w3.org/1999/xlink" width="500" zoomAndPan="magnify" viewBox="0 0 375 374.999991" height="500" preserveAspectRatio="xMidYMid meet" version="1.0"><defs><clipPath id="90a5b6869e"><path d="M 85.796875 214 L 289.046875 214 L 289.046875 274.785156 L 85.796875 274.785156 Z M 85.796875 214 " clip-rule="nonzero"/></clipPath></defs><path fill="#2b2b2b" d="M 130.289062 211.015625 C 130.914062 211.015625 131.539062 210.984375 132.160156 210.925781 C 132.78125 210.863281 133.398438 210.773438 134.011719 210.648438 C 134.625 210.527344 135.230469 210.375 135.828125 210.195312 C 136.425781 210.015625 137.011719 209.804688 137.589844 209.566406 C 138.164062 209.324219 138.730469 209.058594 139.28125 208.765625 C 139.832031 208.46875 140.367188 208.148438 140.886719 207.800781 C 141.402344 207.457031 141.90625 207.085938 142.386719 206.6875 C 142.871094 206.292969 143.332031 205.871094 143.773438 205.429688 C 144.214844 204.988281 144.636719 204.527344 145.03125 204.042969 C 145.425781 203.5625 145.800781 203.0625 146.144531 202.542969 C 146.492188 202.023438 146.8125 201.488281 147.109375 200.9375 C 147.402344 200.386719 147.667969 199.820312 147.90625 199.246094 C 148.148438 198.667969 148.355469 198.082031 148.539062 197.484375 C 148.71875 196.886719 148.871094 196.28125 148.992188 195.667969 C 149.113281 195.054688 149.207031 194.4375 149.269531 193.816406 C 149.328125 193.195312 149.359375 192.570312 149.359375 191.949219 C 149.359375 191.324219 149.328125 190.699219 149.269531 190.078125 C 149.207031 189.457031 149.113281 188.839844 148.992188 188.226562 C 148.871094 187.613281 148.71875 187.007812 148.539062 186.410156 C 148.355469 185.8125 148.148438 185.226562 147.90625 184.648438 C 147.667969 184.074219 147.402344 183.507812 147.109375 182.957031 C 146.8125 182.40625 146.492188 181.871094 146.144531 181.351562 C 145.800781 180.832031 145.425781 180.332031 145.03125 179.851562 C 144.636719 179.367188 144.214844 178.90625 143.773438 178.464844 C 143.332031 178.023438 142.871094 177.601562 142.386719 177.207031 C 141.90625 176.8125 141.402344 176.4375 140.886719 176.09375 C 140.367188 175.746094 139.832031 175.425781 139.28125 175.128906 C 138.730469 174.835938 138.164062 174.570312 137.589844 174.328125 C 137.011719 174.089844 136.425781 173.878906 135.828125 173.699219 C 135.230469 173.519531 134.625 173.367188 134.011719 173.246094 C 133.398438 173.121094 132.78125 173.03125 132.160156 172.96875 C 131.539062 172.910156 130.914062 172.878906 130.289062 172.878906 C 129.667969 172.878906 129.042969 172.910156 128.421875 172.96875 C 127.800781 173.03125 127.183594 173.121094 126.570312 173.246094 C 125.957031 173.367188 125.351562 173.519531 124.753906 173.699219 C 124.15625 173.878906 123.570312 174.089844 122.992188 174.328125 C 122.417969 174.570312 121.851562 174.835938 121.300781 175.128906 C 120.75 175.425781 120.214844 175.746094 119.695312 176.09375 C 119.175781 176.4375 118.675781 176.8125 118.195312 177.207031 C 117.710938 177.601562 117.25 178.023438 116.808594 178.464844 C 116.367188 178.90625 115.945312 179.367188 115.550781 179.851562 C 115.152344 180.332031 114.78125 180.832031 114.433594 181.351562 C 114.089844 181.871094 113.769531 182.40625 113.472656 182.957031 C 113.179688 183.507812 112.914062 184.074219 112.671875 184.648438 C 112.433594 185.226562 112.222656 185.8125 112.042969 186.410156 C 111.863281 187.007812 111.710938 187.613281 111.589844 188.226562 C 111.464844 188.839844 111.375 189.457031 111.3125 190.078125 C 111.253906 190.699219 111.222656 191.324219 111.222656 191.949219 C 111.222656 192.570312 111.253906 193.195312 111.3125 193.816406 C 111.375 194.4375 111.464844 195.054688 111.589844 195.667969 C 111.710938 196.28125 111.863281 196.886719 112.042969 197.484375 C 112.222656 198.082031 112.433594 198.667969 112.671875 199.246094 C 112.914062 199.820312 113.179688 200.386719 113.472656 200.9375 C 113.769531 201.488281 114.089844 202.023438 114.433594 202.542969 C 114.78125 203.0625 115.152344 203.5625 115.550781 204.042969 C 115.945312 204.527344 116.367188 204.988281 116.808594 205.429688 C 117.25 205.871094 117.710938 206.292969 118.195312 206.6875 C 118.675781 207.085938 119.175781 207.457031 119.695312 207.800781 C 120.214844 208.148438 120.75 208.46875 121.300781 208.765625 C 121.851562 209.058594 122.417969 209.324219 122.992188 209.566406 C 123.570312 209.804688 124.15625 210.015625 124.753906 210.195312 C 125.351562 210.375 125.957031 210.527344 126.570312 210.648438 C 127.183594 210.773438 127.800781 210.863281 128.421875 210.925781 C 129.042969 210.984375 129.667969 211.015625 130.289062 211.015625 Z M 130.289062 179.234375 C 131.125 179.234375 131.953125 179.316406 132.769531 179.480469 C 133.589844 179.640625 134.382812 179.882812 135.15625 180.203125 C 135.925781 180.523438 136.660156 180.914062 137.355469 181.378906 C 138.046875 181.839844 138.691406 182.367188 139.28125 182.957031 C 139.871094 183.546875 140.398438 184.191406 140.859375 184.882812 C 141.324219 185.578125 141.714844 186.3125 142.035156 187.082031 C 142.355469 187.855469 142.597656 188.648438 142.757812 189.46875 C 142.921875 190.285156 143.003906 191.113281 143.003906 191.949219 C 143.003906 192.78125 142.921875 193.609375 142.757812 194.425781 C 142.597656 195.246094 142.355469 196.042969 142.035156 196.8125 C 141.714844 197.582031 141.324219 198.316406 140.859375 199.011719 C 140.398438 199.703125 139.871094 200.347656 139.28125 200.9375 C 138.691406 201.527344 138.046875 202.054688 137.355469 202.515625 C 136.660156 202.980469 135.925781 203.371094 135.15625 203.691406 C 134.382812 204.011719 133.589844 204.253906 132.769531 204.414062 C 131.953125 204.578125 131.125 204.660156 130.289062 204.660156 C 129.457031 204.660156 128.628906 204.578125 127.8125 204.414062 C 126.992188 204.253906 126.195312 204.011719 125.425781 203.691406 C 124.65625 203.371094 123.921875 202.980469 123.226562 202.515625 C 122.535156 202.054688 121.890625 201.527344 121.300781 200.9375 C 120.710938 200.347656 120.183594 199.703125 119.71875 199.011719 C 119.257812 198.316406 118.867188 197.582031 118.546875 196.8125 C 118.226562 196.042969 117.984375 195.246094 117.824219 194.425781 C 117.660156 193.609375 117.578125 192.78125 117.578125 191.949219 C 117.578125 191.113281 117.660156 190.285156 117.824219 189.46875 C 117.984375 188.648438 118.226562 187.855469 118.546875 187.082031 C 118.867188 186.3125 119.257812 185.578125 119.71875 184.882812 C 120.183594 184.191406 120.710938 183.546875 121.300781 182.957031 C 121.890625 182.367188 122.535156 181.839844 123.226562 181.378906 C 123.921875 180.914062 124.65625 180.523438 125.425781 180.203125 C 126.195312 179.882812 126.992188 179.640625 127.8125 179.480469 C 128.628906 179.316406 129.457031 179.234375 130.289062 179.234375 Z M 130.289062 179.234375 " fill-opacity="1" fill-rule="nonzero"/><path fill="#2b2b2b" d="M 244.703125 211.015625 C 245.328125 211.015625 245.953125 210.984375 246.574219 210.925781 C 247.195312 210.863281 247.8125 210.773438 248.425781 210.648438 C 249.039062 210.527344 249.640625 210.375 250.238281 210.195312 C 250.835938 210.015625 251.425781 209.804688 252 209.566406 C 252.578125 209.324219 253.144531 209.058594 253.695312 208.765625 C 254.246094 208.46875 254.78125 208.148438 255.296875 207.800781 C 255.816406 207.457031 256.320312 207.085938 256.800781 206.6875 C 257.285156 206.292969 257.746094 205.871094 258.1875 205.429688 C 258.628906 204.988281 259.050781 204.527344 259.445312 204.042969 C 259.839844 203.5625 260.210938 203.0625 260.558594 202.542969 C 260.90625 202.023438 261.226562 201.488281 261.523438 200.9375 C 261.816406 200.386719 262.082031 199.820312 262.320312 199.246094 C 262.5625 198.667969 262.769531 198.082031 262.953125 197.484375 C 263.132812 196.886719 263.285156 196.28125 263.40625 195.667969 C 263.527344 195.054688 263.621094 194.4375 263.683594 193.816406 C 263.742188 193.195312 263.773438 192.570312 263.773438 191.949219 C 263.773438 191.324219 263.742188 190.699219 263.683594 190.078125 C 263.621094 189.457031 263.527344 188.839844 263.40625 188.226562 C 263.285156 187.613281 263.132812 187.007812 262.953125 186.410156 C 262.769531 185.8125 262.5625 185.226562 262.320312 184.648438 C 262.082031 184.074219 261.816406 183.507812 261.523438 182.957031 C 261.226562 182.40625 260.90625 181.871094 260.558594 181.351562 C 260.210938 180.832031 259.839844 180.332031 259.445312 179.851562 C 259.050781 179.367188 258.628906 178.90625 258.1875 178.464844 C 257.746094 178.023438 257.285156 177.601562 256.800781 177.207031 C 256.320312 176.8125 255.816406 176.4375 255.296875 176.09375 C 254.78125 175.746094 254.246094 175.425781 253.695312 175.128906 C 253.144531 174.835938 252.578125 174.570312 252 174.328125 C 251.425781 174.089844 250.835938 173.878906 250.238281 173.699219 C 249.640625 173.519531 249.039062 173.367188 248.425781 173.246094 C 247.8125 173.121094 247.195312 173.03125 246.574219 172.96875 C 245.953125 172.910156 245.328125 172.878906 244.703125 172.878906 C 244.078125 172.878906 243.457031 172.910156 242.835938 172.96875 C 242.214844 173.03125 241.597656 173.121094 240.984375 173.246094 C 240.371094 173.367188 239.765625 173.519531 239.167969 173.699219 C 238.570312 173.878906 237.984375 174.089844 237.40625 174.328125 C 236.832031 174.570312 236.265625 174.835938 235.714844 175.128906 C 235.164062 175.425781 234.628906 175.746094 234.109375 176.09375 C 233.589844 176.4375 233.089844 176.8125 232.605469 177.207031 C 232.125 177.601562 231.664062 178.023438 231.222656 178.464844 C 230.777344 178.90625 230.359375 179.367188 229.964844 179.851562 C 229.566406 180.332031 229.195312 180.832031 228.847656 181.351562 C 228.503906 181.871094 228.183594 182.40625 227.886719 182.957031 C 227.59375 183.507812 227.324219 184.074219 227.085938 184.648438 C 226.847656 185.226562 226.636719 185.8125 226.457031 186.410156 C 226.277344 187.007812 226.125 187.613281 226.003906 188.226562 C 225.878906 188.839844 225.789062 189.457031 225.726562 190.078125 C 225.667969 190.699219 225.636719 191.324219 225.636719 191.949219 C 225.636719 192.570312 225.667969 193.195312 225.726562 193.816406 C 225.789062 194.4375 225.878906 195.054688 226.003906 195.667969 C 226.125 196.28125 226.277344 196.886719 226.457031 197.484375 C 226.636719 198.082031 226.847656 198.667969 227.085938 199.246094 C 227.324219 199.820312 227.59375 200.386719 227.886719 200.9375 C 228.183594 201.488281 228.503906 202.023438 228.847656 202.542969 C 229.195312 203.0625 229.566406 203.5625 229.964844 204.042969 C 230.359375 204.527344 230.777344 204.988281 231.222656 205.429688 C 231.664062 205.871094 232.125 206.292969 232.605469 206.6875 C 233.089844 207.085938 233.589844 207.457031 234.109375 207.800781 C 234.628906 208.148438 235.164062 208.46875 235.714844 208.765625 C 236.265625 209.058594 236.832031 209.324219 237.40625 209.566406 C 237.984375 209.804688 238.570312 210.015625 239.167969 210.195312 C 239.765625 210.375 240.371094 210.527344 240.984375 210.648438 C 241.597656 210.773438 242.214844 210.863281 242.835938 210.925781 C 243.457031 210.984375 244.078125 211.015625 244.703125 211.015625 Z M 244.703125 179.234375 C 245.539062 179.234375 246.367188 179.316406 247.183594 179.480469 C 248.003906 179.640625 248.796875 179.882812 249.570312 180.203125 C 250.339844 180.523438 251.074219 180.914062 251.765625 181.378906 C 252.460938 181.839844 253.105469 182.367188 253.695312 182.957031 C 254.285156 183.546875 254.8125 184.191406 255.273438 184.882812 C 255.738281 185.578125 256.128906 186.3125 256.449219 187.082031 C 256.769531 187.855469 257.011719 188.648438 257.171875 189.46875 C 257.335938 190.285156 257.417969 191.113281 257.417969 191.949219 C 257.417969 192.78125 257.335938 193.609375 257.171875 194.425781 C 257.011719 195.246094 256.769531 196.042969 256.449219 196.8125 C 256.128906 197.582031 255.738281 198.316406 255.273438 199.011719 C 254.8125 199.703125 254.285156 200.347656 253.695312 200.9375 C 253.105469 201.527344 252.460938 202.054688 251.765625 202.515625 C 251.074219 202.980469 250.339844 203.371094 249.570312 203.691406 C 248.796875 204.011719 248.003906 204.253906 247.183594 204.414062 C 246.367188 204.578125 245.539062 204.660156 244.703125 204.660156 C 243.871094 204.660156 243.042969 204.578125 242.222656 204.414062 C 241.40625 204.253906 240.609375 204.011719 239.839844 203.691406 C 239.070312 203.371094 238.335938 202.980469 237.640625 202.515625 C 236.949219 202.054688 236.304688 201.527344 235.714844 200.9375 C 235.125 200.347656 234.597656 199.703125 234.132812 199.011719 C 233.671875 198.316406 233.277344 197.582031 232.960938 196.8125 C 232.640625 196.042969 232.398438 195.246094 232.234375 194.425781 C 232.074219 193.609375 231.992188 192.78125 231.992188 191.949219 C 231.992188 191.113281 232.074219 190.285156 232.234375 189.46875 C 232.398438 188.648438 232.640625 187.855469 232.960938 187.082031 C 233.277344 186.3125 233.671875 185.578125 234.132812 184.882812 C 234.597656 184.191406 235.125 183.546875 235.714844 182.957031 C 236.304688 182.367188 236.949219 181.839844 237.640625 181.378906 C 238.335938 180.914062 239.070312 180.523438 239.839844 180.203125 C 240.609375 179.882812 241.40625 179.640625 242.222656 179.480469 C 243.042969 179.316406 243.871094 179.234375 244.703125 179.234375 Z M 244.703125 179.234375 " fill-opacity="1" fill-rule="nonzero"/><g clip-path="url(#90a5b6869e)"><path fill="#2b2b2b" d="M 286.019531 268.222656 L 277.441406 268.222656 C 278.148438 267.3125 278.691406 266.3125 279.070312 265.226562 C 279.453125 264.140625 279.648438 263.019531 279.664062 261.867188 L 279.664062 233.261719 C 279.664062 222.742188 269.683594 214.195312 257.417969 214.195312 L 231.992188 214.195312 C 220.996094 214.195312 211.84375 221.089844 210.09375 230.085938 L 197.03125 230.085938 C 196.542969 230.082031 196.078125 230.1875 195.636719 230.398438 C 195.195312 230.609375 194.824219 230.910156 194.519531 231.292969 C 194.21875 231.679688 194.019531 232.113281 193.917969 232.59375 C 193.820312 233.074219 193.828125 233.550781 193.949219 234.027344 L 202.5 268.222656 L 172.496094 268.222656 L 181.140625 234.027344 C 181.261719 233.550781 181.273438 233.074219 181.171875 232.59375 C 181.070312 232.113281 180.871094 231.679688 180.570312 231.292969 C 180.253906 230.894531 179.871094 230.589844 179.410156 230.378906 C 178.953125 230.164062 178.46875 230.066406 177.964844 230.085938 L 164.902344 230.085938 C 163.152344 221.089844 154 214.195312 143.003906 214.195312 L 117.578125 214.195312 C 105.308594 214.195312 95.332031 222.742188 95.332031 233.261719 L 95.332031 261.867188 C 95.347656 263.019531 95.542969 264.140625 95.925781 265.226562 C 96.304688 266.3125 96.847656 267.3125 97.554688 268.222656 L 88.976562 268.222656 C 88.554688 268.222656 88.148438 268.304688 87.757812 268.464844 C 87.367188 268.625 87.023438 268.855469 86.726562 269.152344 C 86.429688 269.453125 86.199219 269.796875 86.039062 270.183594 C 85.878906 270.574219 85.796875 270.980469 85.796875 271.402344 C 85.796875 271.824219 85.878906 272.226562 86.039062 272.617188 C 86.199219 273.007812 86.429688 273.351562 86.726562 273.648438 C 87.023438 273.945312 87.367188 274.175781 87.757812 274.335938 C 88.148438 274.5 88.554688 274.578125 88.976562 274.578125 L 286.019531 274.578125 C 286.441406 274.578125 286.847656 274.5 287.238281 274.335938 C 287.625 274.175781 287.96875 273.945312 288.269531 273.648438 C 288.566406 273.351562 288.796875 273.007812 288.957031 272.617188 C 289.117188 272.226562 289.199219 271.824219 289.199219 271.402344 C 289.199219 270.980469 289.117188 270.574219 288.957031 270.183594 C 288.796875 269.796875 288.566406 269.453125 288.269531 269.152344 C 287.96875 268.855469 287.625 268.625 287.238281 268.464844 C 286.847656 268.304688 286.441406 268.222656 286.019531 268.222656 Z M 139.824219 268.222656 L 111.222656 268.222656 C 106.042969 268.222656 101.6875 265.300781 101.6875 261.867188 L 101.6875 233.261719 C 101.6875 226.238281 108.804688 220.550781 117.578125 220.550781 L 143.003906 220.550781 C 143.804688 220.503906 144.605469 220.519531 145.40625 220.59375 C 146.203125 220.671875 146.992188 220.808594 147.769531 221.007812 C 148.550781 221.207031 149.308594 221.460938 150.046875 221.777344 C 150.785156 222.089844 151.496094 222.460938 152.175781 222.886719 C 152.859375 223.308594 153.503906 223.785156 154.113281 224.308594 C 154.722656 224.832031 155.285156 225.398438 155.808594 226.007812 C 156.328125 226.621094 156.800781 227.265625 157.222656 227.949219 C 157.644531 228.632812 158.011719 229.34375 158.320312 230.085938 L 133.46875 230.085938 C 133.105469 230.074219 132.75 230.125 132.40625 230.234375 C 132.058594 230.347656 131.742188 230.511719 131.453125 230.730469 C 131.164062 230.953125 130.917969 231.214844 130.71875 231.515625 C 130.519531 231.820312 130.378906 232.148438 130.289062 232.5 L 124.632812 255.511719 L 117.578125 255.511719 L 117.578125 245.976562 C 117.578125 245.554688 117.496094 245.148438 117.335938 244.761719 C 117.175781 244.371094 116.945312 244.027344 116.648438 243.730469 C 116.347656 243.429688 116.003906 243.199219 115.617188 243.039062 C 115.226562 242.878906 114.820312 242.796875 114.398438 242.796875 C 113.976562 242.796875 113.574219 242.878906 113.183594 243.039062 C 112.792969 243.199219 112.449219 243.429688 112.152344 243.730469 C 111.855469 244.027344 111.625 244.371094 111.464844 244.761719 C 111.300781 245.148438 111.222656 245.554688 111.222656 245.976562 L 111.222656 258.6875 C 111.222656 259.109375 111.300781 259.515625 111.464844 259.90625 C 111.625 260.292969 111.855469 260.636719 112.152344 260.9375 C 112.449219 261.234375 112.792969 261.464844 113.183594 261.625 C 113.574219 261.785156 113.976562 261.867188 114.398438 261.867188 L 148.820312 261.867188 C 148.492188 262.796875 148.027344 263.65625 147.433594 264.441406 C 146.839844 265.226562 146.136719 265.90625 145.332031 266.476562 C 144.527344 267.042969 143.65625 267.476562 142.714844 267.777344 C 141.773438 268.074219 140.8125 268.222656 139.824219 268.222656 Z M 165.949219 268.222656 L 152.539062 268.222656 C 153.578125 266.851562 154.371094 265.351562 154.914062 263.71875 C 155.457031 262.085938 155.726562 260.410156 155.714844 258.6875 C 155.714844 258.265625 155.636719 257.863281 155.472656 257.472656 C 155.3125 257.082031 155.082031 256.738281 154.785156 256.441406 C 154.488281 256.144531 154.144531 255.914062 153.753906 255.753906 C 153.363281 255.589844 152.960938 255.511719 152.539062 255.511719 L 131.179688 255.511719 L 135.949219 236.441406 L 173.894531 236.441406 Z M 209.046875 268.222656 L 201.101562 236.441406 L 239.046875 236.441406 L 243.816406 255.511719 L 222.457031 255.511719 C 222.035156 255.511719 221.628906 255.589844 221.242188 255.753906 C 220.851562 255.914062 220.507812 256.144531 220.210938 256.441406 C 219.914062 256.738281 219.683594 257.082031 219.519531 257.472656 C 219.359375 257.863281 219.28125 258.265625 219.277344 258.6875 C 219.269531 260.410156 219.539062 262.085938 220.082031 263.71875 C 220.625 265.351562 221.417969 266.851562 222.457031 268.222656 Z M 273.308594 261.867188 C 273.308594 265.300781 268.953125 268.222656 263.773438 268.222656 L 235.171875 268.222656 C 234.183594 268.222656 233.21875 268.074219 232.28125 267.777344 C 231.339844 267.476562 230.46875 267.042969 229.664062 266.476562 C 228.855469 265.90625 228.15625 265.226562 227.5625 264.441406 C 226.964844 263.65625 226.503906 262.796875 226.175781 261.867188 L 260.59375 261.867188 C 261.015625 261.867188 261.421875 261.785156 261.8125 261.625 C 262.199219 261.464844 262.542969 261.234375 262.84375 260.9375 C 263.140625 260.636719 263.371094 260.292969 263.53125 259.90625 C 263.691406 259.515625 263.773438 259.109375 263.773438 258.6875 L 263.773438 245.976562 C 263.773438 245.554688 263.691406 245.148438 263.53125 244.761719 C 263.371094 244.371094 263.140625 244.027344 262.84375 243.730469 C 262.542969 243.429688 262.199219 243.199219 261.8125 243.039062 C 261.421875 242.878906 261.015625 242.796875 260.59375 242.796875 C 260.175781 242.796875 259.769531 242.878906 259.378906 243.039062 C 258.988281 243.199219 258.644531 243.429688 258.347656 243.730469 C 258.050781 244.027344 257.820312 244.371094 257.660156 244.761719 C 257.496094 245.148438 257.417969 245.554688 257.417969 245.976562 L 257.417969 255.511719 L 250.363281 255.511719 L 244.703125 232.5 C 244.617188 232.148438 244.472656 231.820312 244.273438 231.515625 C 244.074219 231.214844 243.832031 230.953125 243.542969 230.730469 C 243.253906 230.511719 242.933594 230.347656 242.589844 230.234375 C 242.242188 230.125 241.890625 230.074219 241.527344 230.085938 L 216.671875 230.085938 C 216.984375 229.34375 217.351562 228.632812 217.773438 227.949219 C 218.195312 227.265625 218.667969 226.621094 219.1875 226.007812 C 219.710938 225.398438 220.273438 224.832031 220.882812 224.308594 C 221.492188 223.785156 222.136719 223.308594 222.820312 222.886719 C 223.5 222.460938 224.210938 222.089844 224.949219 221.777344 C 225.6875 221.460938 226.445312 221.207031 227.222656 221.007812 C 228.003906 220.808594 228.792969 220.671875 229.589844 220.59375 C 230.390625 220.519531 231.191406 220.503906 231.992188 220.550781 L 257.417969 220.550781 C 266.1875 220.550781 273.308594 226.238281 273.308594 233.261719 Z M 273.308594 261.867188 " fill-opacity="1" fill-rule="nonzero"/></g><path fill="#2b2b2b" d="M 230.433594 137.917969 C 230.433594 136.980469 230.390625 136.046875 230.296875 135.113281 C 230.207031 134.183594 230.066406 133.257812 229.886719 132.339844 C 229.703125 131.417969 229.476562 130.511719 229.203125 129.617188 C 228.929688 128.71875 228.617188 127.839844 228.257812 126.972656 C 227.898438 126.105469 227.5 125.261719 227.058594 124.433594 C 226.617188 123.609375 226.132812 122.804688 225.613281 122.027344 C 225.09375 121.25 224.535156 120.496094 223.941406 119.773438 C 223.347656 119.046875 222.71875 118.355469 222.058594 117.691406 C 221.394531 117.03125 220.703125 116.402344 219.976562 115.808594 C 219.253906 115.214844 218.5 114.65625 217.722656 114.136719 C 216.945312 113.613281 216.140625 113.132812 215.316406 112.691406 C 214.488281 112.25 213.644531 111.851562 212.777344 111.492188 C 211.910156 111.132812 211.03125 110.820312 210.132812 110.546875 C 209.238281 110.273438 208.332031 110.046875 207.410156 109.863281 C 206.492188 109.683594 205.566406 109.542969 204.636719 109.453125 C 203.703125 109.359375 202.769531 109.316406 201.832031 109.316406 C 198.75 109.316406 195.753906 109.8125 192.835938 110.808594 C 192.109375 110.097656 191.347656 109.425781 190.550781 108.796875 C 189.753906 108.167969 188.925781 107.578125 188.066406 107.039062 C 187.207031 106.496094 186.320312 106 185.40625 105.554688 C 184.492188 105.105469 183.558594 104.710938 182.605469 104.363281 C 181.648438 104.015625 180.679688 103.71875 179.691406 103.472656 C 178.703125 103.230469 177.707031 103.039062 176.699219 102.898438 C 175.691406 102.761719 174.683594 102.679688 173.664062 102.648438 C 172.648438 102.617188 171.632812 102.640625 170.621094 102.71875 C 169.609375 102.796875 168.601562 102.929688 167.601562 103.113281 C 166.601562 103.300781 165.617188 103.539062 164.640625 103.828125 C 163.667969 104.121094 162.710938 104.460938 161.773438 104.855469 C 160.835938 105.246094 159.921875 105.6875 159.03125 106.175781 C 158.140625 106.667969 157.277344 107.203125 156.445312 107.785156 C 155.613281 108.367188 154.8125 108.992188 154.042969 109.660156 C 153.277344 110.324219 152.546875 111.03125 151.855469 111.777344 C 151.164062 112.523438 150.515625 113.300781 149.90625 114.117188 C 149.296875 114.929688 148.734375 115.773438 148.214844 116.648438 C 147.695312 117.523438 147.226562 118.421875 146.804688 119.347656 C 146.382812 120.269531 146.007812 121.214844 145.6875 122.179688 C 145.363281 123.144531 145.09375 124.121094 144.878906 125.113281 C 144.660156 126.109375 144.496094 127.109375 144.386719 128.121094 C 144.273438 129.128906 144.21875 130.144531 144.214844 131.160156 C 144.210938 132.175781 144.261719 133.191406 144.367188 134.203125 C 144.472656 135.214844 144.632812 136.214844 144.84375 137.210938 C 145.054688 138.203125 145.320312 139.183594 145.636719 140.148438 C 145.953125 141.117188 146.320312 142.0625 146.738281 142.988281 C 147.15625 143.914062 147.621094 144.816406 148.136719 145.695312 C 148.648438 146.570312 149.207031 147.417969 149.8125 148.238281 C 150.417969 149.054688 151.0625 149.835938 151.75 150.585938 C 152.4375 151.335938 153.164062 152.042969 153.925781 152.714844 C 154.691406 153.386719 155.488281 154.015625 156.316406 154.601562 C 157.148438 155.1875 158.007812 155.730469 158.894531 156.226562 L 157.496094 166.078125 C 157.390625 166.695312 157.460938 167.292969 157.707031 167.867188 C 157.957031 168.445312 158.339844 168.90625 158.863281 169.253906 C 159.402344 169.617188 159.992188 169.796875 160.640625 169.796875 C 161.207031 169.800781 161.738281 169.660156 162.230469 169.382812 L 179.203125 159.65625 C 180.28125 159.425781 181.339844 159.128906 182.378906 158.765625 C 184.277344 160.578125 186.382812 162.097656 188.699219 163.328125 C 191.015625 164.558594 193.453125 165.453125 196.015625 166.011719 L 212.921875 175.644531 C 213.414062 175.921875 213.945312 176.058594 214.511719 176.054688 C 215.160156 176.058594 215.753906 175.878906 216.292969 175.515625 C 216.8125 175.167969 217.199219 174.707031 217.445312 174.128906 C 217.691406 173.554688 217.765625 172.957031 217.660156 172.339844 L 216.261719 162.484375 C 217.328125 161.859375 218.351562 161.171875 219.332031 160.414062 C 220.3125 159.65625 221.238281 158.835938 222.113281 157.957031 C 222.984375 157.082031 223.796875 156.148438 224.550781 155.167969 C 225.300781 154.183594 225.988281 153.15625 226.605469 152.082031 C 227.226562 151.011719 227.773438 149.902344 228.246094 148.757812 C 228.722656 147.613281 229.121094 146.445312 229.445312 145.25 C 229.765625 144.054688 230.011719 142.84375 230.175781 141.617188 C 230.34375 140.390625 230.429688 139.15625 230.433594 137.917969 Z M 177.359375 153.429688 C 177.015625 153.503906 176.6875 153.617188 176.375 153.777344 L 164.582031 160.546875 L 165.25 154.921875 C 165.28125 154.597656 165.265625 154.277344 165.199219 153.957031 C 165.132812 153.636719 165.019531 153.335938 164.859375 153.050781 C 164.703125 152.769531 164.503906 152.515625 164.265625 152.292969 C 164.03125 152.066406 163.765625 151.886719 163.472656 151.742188 C 162.683594 151.363281 161.921875 150.941406 161.183594 150.472656 C 160.445312 150.003906 159.738281 149.496094 159.0625 148.941406 C 158.382812 148.390625 157.742188 147.800781 157.132812 147.175781 C 156.523438 146.546875 155.957031 145.886719 155.425781 145.191406 C 154.894531 144.496094 154.40625 143.773438 153.964844 143.019531 C 153.519531 142.269531 153.117188 141.492188 152.765625 140.695312 C 152.410156 139.894531 152.105469 139.078125 151.847656 138.246094 C 151.59375 137.410156 151.386719 136.5625 151.226562 135.703125 C 151.070312 134.84375 150.964844 133.976562 150.90625 133.105469 C 150.851562 132.234375 150.847656 131.363281 150.894531 130.488281 C 150.941406 129.617188 151.042969 128.75 151.191406 127.890625 C 151.339844 127.027344 151.539062 126.179688 151.789062 125.34375 C 152.039062 124.503906 152.335938 123.683594 152.683594 122.882812 C 153.027344 122.082031 153.421875 121.300781 153.859375 120.546875 C 154.296875 119.789062 154.777344 119.0625 155.300781 118.363281 C 155.824219 117.664062 156.386719 116.996094 156.988281 116.363281 C 157.589844 115.730469 158.226562 115.132812 158.898438 114.574219 C 159.570312 114.019531 160.273438 113.5 161.007812 113.027344 C 161.742188 112.550781 162.5 112.121094 163.28125 111.734375 C 164.066406 111.347656 164.871094 111.007812 165.695312 110.71875 C 166.519531 110.425781 167.355469 110.183594 168.207031 109.992188 C 169.0625 109.800781 169.921875 109.660156 170.789062 109.566406 C 171.660156 109.476562 172.53125 109.4375 173.402344 109.449219 C 174.277344 109.460938 175.148438 109.523438 176.015625 109.636719 C 176.878906 109.75 177.738281 109.914062 178.582031 110.128906 C 179.429688 110.34375 180.261719 110.609375 181.078125 110.921875 C 181.894531 111.234375 182.6875 111.59375 183.460938 112 C 184.234375 112.40625 184.980469 112.859375 185.703125 113.351562 C 186.421875 113.847656 187.109375 114.382812 187.769531 114.957031 C 188.425781 115.53125 189.046875 116.144531 189.632812 116.792969 C 190.214844 117.441406 190.761719 118.125 191.265625 118.835938 C 191.769531 119.550781 192.234375 120.289062 192.648438 121.058594 C 193.066406 121.824219 193.4375 122.613281 193.765625 123.425781 C 194.089844 124.234375 194.363281 125.0625 194.589844 125.90625 C 194.820312 126.75 194.996094 127.605469 195.121094 128.46875 C 195.25 129.332031 195.324219 130.203125 195.347656 131.078125 C 195.371094 131.949219 195.347656 132.820312 195.265625 133.691406 C 195.1875 134.5625 195.058594 135.425781 194.878906 136.277344 C 194.699219 137.132812 194.46875 137.976562 194.191406 138.804688 C 193.910156 139.632812 193.585938 140.441406 193.210938 141.230469 C 192.835938 142.019531 192.414062 142.785156 191.953125 143.523438 C 191.488281 144.261719 190.980469 144.972656 190.433594 145.652344 C 189.882812 146.332031 189.296875 146.980469 188.671875 147.589844 C 188.046875 148.203125 187.390625 148.773438 186.699219 149.308594 C 186.007812 149.839844 185.285156 150.332031 184.535156 150.78125 C 183.789062 151.230469 183.015625 151.632812 182.214844 151.992188 C 181.417969 152.347656 180.605469 152.660156 179.769531 152.921875 C 178.9375 153.179688 178.089844 153.394531 177.230469 153.554688 Z M 211.460938 157.972656 C 211.167969 158.113281 210.902344 158.296875 210.664062 158.519531 C 210.429688 158.742188 210.230469 158.996094 210.070312 159.28125 C 209.910156 159.566406 209.796875 159.867188 209.730469 160.1875 C 209.664062 160.503906 209.648438 160.828125 209.679688 161.152344 L 210.476562 166.777344 L 198.683594 160.164062 C 198.371094 160.007812 198.042969 159.890625 197.699219 159.816406 C 194.339844 159.160156 191.300781 157.792969 188.578125 155.714844 C 189.371094 155.210938 190.136719 154.671875 190.875 154.089844 C 191.613281 153.511719 192.320312 152.894531 192.996094 152.246094 C 193.675781 151.597656 194.320312 150.917969 194.929688 150.203125 C 195.542969 149.492188 196.117188 148.75 196.652344 147.980469 C 197.191406 147.210938 197.691406 146.417969 198.148438 145.597656 C 198.609375 144.78125 199.027344 143.941406 199.40625 143.082031 C 199.78125 142.222656 200.117188 141.347656 200.40625 140.453125 C 200.699219 139.5625 200.945312 138.65625 201.144531 137.738281 C 201.347656 136.824219 201.503906 135.898438 201.613281 134.964844 C 201.726562 134.035156 201.789062 133.097656 201.808594 132.160156 C 201.828125 131.222656 201.800781 130.285156 201.726562 129.347656 C 201.652344 128.414062 201.53125 127.484375 201.367188 126.558594 C 201.203125 125.636719 200.992188 124.722656 200.738281 123.816406 C 200.480469 122.914062 200.183594 122.027344 199.839844 121.152344 C 199.5 120.277344 199.113281 119.421875 198.6875 118.585938 C 198.261719 117.75 197.792969 116.9375 197.285156 116.148438 C 198.785156 115.828125 200.300781 115.667969 201.832031 115.671875 C 203.082031 115.675781 204.320312 115.785156 205.550781 116 C 206.78125 116.214844 207.988281 116.53125 209.164062 116.949219 C 210.34375 117.367188 211.476562 117.878906 212.570312 118.488281 C 213.660156 119.097656 214.691406 119.792969 215.667969 120.574219 C 216.640625 121.355469 217.542969 122.214844 218.371094 123.148438 C 219.203125 124.082031 219.945312 125.082031 220.609375 126.140625 C 221.269531 127.199219 221.839844 128.308594 222.3125 129.464844 C 222.789062 130.621094 223.164062 131.808594 223.4375 133.027344 C 223.710938 134.246094 223.882812 135.480469 223.949219 136.726562 C 224.015625 137.972656 223.980469 139.21875 223.835938 140.460938 C 223.695312 141.703125 223.449219 142.921875 223.097656 144.121094 C 222.75 145.320312 222.304688 146.484375 221.761719 147.609375 C 221.214844 148.734375 220.582031 149.804688 219.855469 150.824219 C 219.132812 151.839844 218.328125 152.789062 217.441406 153.671875 C 216.558594 154.554688 215.605469 155.355469 214.585938 156.078125 C 213.566406 156.800781 212.492188 157.433594 211.367188 157.972656 Z M 211.460938 157.972656 " fill-opacity="1" fill-rule="nonzero"/><path fill="#2b2b2b" d="M 168.460938 131.5625 C 168.460938 131.875 168.429688 132.183594 168.367188 132.492188 C 168.308594 132.800781 168.21875 133.097656 168.097656 133.386719 C 167.976562 133.675781 167.832031 133.949219 167.65625 134.210938 C 167.484375 134.472656 167.285156 134.710938 167.0625 134.933594 C 166.84375 135.15625 166.601562 135.351562 166.339844 135.527344 C 166.082031 135.699219 165.808594 135.847656 165.519531 135.964844 C 165.226562 136.085938 164.929688 136.175781 164.625 136.238281 C 164.316406 136.300781 164.007812 136.328125 163.691406 136.328125 C 163.378906 136.328125 163.070312 136.300781 162.761719 136.238281 C 162.457031 136.175781 162.15625 136.085938 161.867188 135.964844 C 161.578125 135.847656 161.304688 135.699219 161.042969 135.527344 C 160.785156 135.351562 160.542969 135.15625 160.324219 134.933594 C 160.101562 134.710938 159.902344 134.472656 159.730469 134.210938 C 159.554688 133.949219 159.410156 133.675781 159.289062 133.386719 C 159.167969 133.097656 159.078125 132.800781 159.019531 132.492188 C 158.957031 132.183594 158.925781 131.875 158.925781 131.5625 C 158.925781 131.25 158.957031 130.9375 159.019531 130.632812 C 159.078125 130.324219 159.167969 130.027344 159.289062 129.738281 C 159.410156 129.449219 159.554688 129.175781 159.730469 128.914062 C 159.902344 128.652344 160.101562 128.414062 160.324219 128.191406 C 160.542969 127.96875 160.785156 127.773438 161.042969 127.597656 C 161.304688 127.425781 161.578125 127.277344 161.867188 127.15625 C 162.15625 127.039062 162.457031 126.949219 162.761719 126.886719 C 163.070312 126.824219 163.378906 126.796875 163.691406 126.796875 C 164.007812 126.796875 164.316406 126.824219 164.625 126.886719 C 164.929688 126.949219 165.226562 127.039062 165.519531 127.15625 C 165.808594 127.277344 166.082031 127.425781 166.339844 127.597656 C 166.601562 127.773438 166.84375 127.96875 167.0625 128.191406 C 167.285156 128.414062 167.484375 128.652344 167.65625 128.914062 C 167.832031 129.175781 167.976562 129.449219 168.097656 129.738281 C 168.21875 130.027344 168.308594 130.324219 168.367188 130.632812 C 168.429688 130.9375 168.460938 131.25 168.460938 131.5625 Z M 168.460938 131.5625 " fill-opacity="1" fill-rule="nonzero"/><path fill="#2b2b2b" d="M 177.996094 131.5625 C 177.996094 131.875 177.964844 132.183594 177.902344 132.492188 C 177.84375 132.800781 177.75 133.097656 177.632812 133.386719 C 177.511719 133.675781 177.367188 133.949219 177.191406 134.210938 C 177.019531 134.472656 176.820312 134.710938 176.597656 134.933594 C 176.378906 135.15625 176.136719 135.351562 175.875 135.527344 C 175.617188 135.699219 175.339844 135.847656 175.050781 135.964844 C 174.761719 136.085938 174.464844 136.175781 174.15625 136.238281 C 173.851562 136.300781 173.539062 136.328125 173.226562 136.328125 C 172.914062 136.328125 172.605469 136.300781 172.296875 136.238281 C 171.992188 136.175781 171.691406 136.085938 171.402344 135.964844 C 171.113281 135.847656 170.839844 135.699219 170.578125 135.527344 C 170.320312 135.351562 170.078125 135.15625 169.855469 134.933594 C 169.636719 134.710938 169.4375 134.472656 169.265625 134.210938 C 169.089844 133.949219 168.941406 133.675781 168.824219 133.386719 C 168.703125 133.097656 168.613281 132.800781 168.550781 132.492188 C 168.492188 132.183594 168.460938 131.875 168.460938 131.5625 C 168.460938 131.25 168.492188 130.9375 168.550781 130.632812 C 168.613281 130.324219 168.703125 130.027344 168.824219 129.738281 C 168.941406 129.449219 169.089844 129.175781 169.265625 128.914062 C 169.4375 128.652344 169.636719 128.414062 169.855469 128.191406 C 170.078125 127.96875 170.320312 127.773438 170.578125 127.597656 C 170.839844 127.425781 171.113281 127.277344 171.402344 127.15625 C 171.691406 127.039062 171.992188 126.949219 172.296875 126.886719 C 172.605469 126.824219 172.914062 126.796875 173.226562 126.796875 C 173.539062 126.796875 173.851562 126.824219 174.15625 126.886719 C 174.464844 126.949219 174.761719 127.039062 175.050781 127.15625 C 175.339844 127.277344 175.617188 127.425781 175.875 127.597656 C 176.136719 127.773438 176.378906 127.96875 176.597656 128.191406 C 176.820312 128.414062 177.019531 128.652344 177.191406 128.914062 C 177.367188 129.175781 177.511719 129.449219 177.632812 129.738281 C 177.75 130.027344 177.84375 130.324219 177.902344 130.632812 C 177.964844 130.9375 177.996094 131.25 177.996094 131.5625 Z M 177.996094 131.5625 " fill-opacity="1" fill-rule="nonzero"/><path fill="#2b2b2b" d="M 187.53125 131.5625 C 187.53125 131.875 187.5 132.183594 187.4375 132.492188 C 187.375 132.800781 187.285156 133.097656 187.167969 133.386719 C 187.046875 133.675781 186.898438 133.949219 186.726562 134.210938 C 186.550781 134.472656 186.355469 134.710938 186.132812 134.933594 C 185.910156 135.15625 185.671875 135.351562 185.410156 135.527344 C 185.152344 135.699219 184.875 135.847656 184.585938 135.964844 C 184.296875 136.085938 184 136.175781 183.691406 136.238281 C 183.386719 136.300781 183.074219 136.328125 182.761719 136.328125 C 182.449219 136.328125 182.140625 136.300781 181.832031 136.238281 C 181.523438 136.175781 181.226562 136.085938 180.9375 135.964844 C 180.648438 135.847656 180.375 135.699219 180.113281 135.527344 C 179.851562 135.351562 179.613281 135.15625 179.390625 134.933594 C 179.171875 134.710938 178.972656 134.472656 178.796875 134.210938 C 178.625 133.949219 178.476562 133.675781 178.359375 133.386719 C 178.238281 133.097656 178.148438 132.800781 178.085938 132.492188 C 178.027344 132.183594 177.996094 131.875 177.996094 131.5625 C 177.996094 131.25 178.027344 130.9375 178.085938 130.632812 C 178.148438 130.324219 178.238281 130.027344 178.359375 129.738281 C 178.476562 129.449219 178.625 129.175781 178.796875 128.914062 C 178.972656 128.652344 179.171875 128.414062 179.390625 128.191406 C 179.613281 127.96875 179.851562 127.773438 180.113281 127.597656 C 180.375 127.425781 180.648438 127.277344 180.9375 127.15625 C 181.226562 127.039062 181.523438 126.949219 181.832031 126.886719 C 182.140625 126.824219 182.449219 126.796875 182.761719 126.796875 C 183.074219 126.796875 183.386719 126.824219 183.691406 126.886719 C 184 126.949219 184.296875 127.039062 184.585938 127.15625 C 184.875 127.277344 185.152344 127.425781 185.410156 127.597656 C 185.671875 127.773438 185.910156 127.96875 186.132812 128.191406 C 186.355469 128.414062 186.550781 128.652344 186.726562 128.914062 C 186.898438 129.175781 187.046875 129.449219 187.167969 129.738281 C 187.285156 130.027344 187.375 130.324219 187.4375 130.632812 C 187.5 130.9375 187.53125 131.25 187.53125 131.5625 Z M 187.53125 131.5625 " fill-opacity="1" fill-rule="nonzero"/></svg>