<svg xmlns="http://www.w3.org/2000/svg" xmlns:xlink="http://www.w3.org/1999/xlink" width="500" zoomAndPan="magnify" viewBox="0 0 375 374.999991" height="500" preserveAspectRatio="xMidYMid meet" version="1.0"><defs><clipPath id="60a338184f"><path d="M 112.5 180 L 203 180 L 203 195 L 112.5 195 Z M 112.5 180 " clip-rule="nonzero"/></clipPath><clipPath id="aedc9f2eba"><path d="M 134 120 L 262.5 120 L 262.5 255 L 134 255 Z M 134 120 " clip-rule="nonzero"/></clipPath></defs><g clip-path="url(#60a338184f)"><path fill="#2b2b2b" d="M 112.5 180 L 202.5 180 L 202.5 195 L 112.5 195 Z M 112.5 180 " fill-opacity="1" fill-rule="evenodd"/></g><path fill="#2b2b2b" d="M 181.554688 155.945312 L 207.804688 182.195312 C 210.734375 185.125 210.734375 189.875 207.804688 192.804688 L 181.554688 219.054688 L 170.949219 208.445312 L 191.894531 187.5 L 170.949219 166.554688 Z M 181.554688 155.945312 " fill-opacity="1" fill-rule="evenodd"/><g clip-path="url(#aedc9f2eba)"><path fill="#2b2b2b" d="M 195 135 C 174.617188 135 156.933594 146.613281 148.230469 163.617188 L 134.878906 156.78125 C 146.046875 134.960938 168.769531 120 195 120 C 232.277344 120 262.5 150.222656 262.5 187.5 C 262.5 224.78125 232.277344 255 195 255 C 168.769531 255 146.046875 240.039062 134.878906 218.21875 L 148.230469 211.382812 C 156.933594 228.386719 174.617188 240 195 240 C 223.996094 240 247.5 216.496094 247.5 187.5 C 247.5 158.503906 223.996094 135 195 135 Z M 195 135 " fill-opacity="1" fill-rule="evenodd"/></g></svg>