<svg xmlns="http://www.w3.org/2000/svg" xmlns:xlink="http://www.w3.org/1999/xlink" width="500" zoomAndPan="magnify" viewBox="0 0 375 374.999991" height="500" preserveAspectRatio="xMidYMid meet" version="1.0"><defs><clipPath id="3357688631"><path d="M 112.5 112.5 L 262 112.5 L 262 262.5 L 112.5 262.5 Z M 112.5 112.5 " clip-rule="nonzero"/></clipPath></defs><g clip-path="url(#3357688631)"><path fill="#2b2b2b" d="M 258.425781 244.046875 L 216.980469 202.601562 L 213.214844 206.367188 L 204.453125 197.601562 C 211.851562 188.632812 216.300781 177.144531 216.300781 164.636719 C 216.300781 136.019531 193.019531 112.738281 164.402344 112.738281 C 135.785156 112.738281 112.503906 136.019531 112.503906 164.636719 C 112.503906 193.253906 135.785156 216.535156 164.402344 216.535156 C 176.6875 216.535156 187.976562 212.234375 196.871094 205.078125 L 205.691406 213.894531 L 201.925781 217.660156 L 243.371094 259.105469 C 245.449219 261.183594 248.175781 262.222656 250.898438 262.222656 C 253.621094 262.222656 256.34375 261.183594 258.425781 259.105469 C 262.585938 254.945312 262.585938 248.203125 258.425781 244.046875 Z M 123.152344 164.632812 C 123.152344 141.890625 141.65625 123.382812 164.402344 123.382812 C 187.148438 123.382812 205.65625 141.890625 205.65625 164.632812 C 205.65625 187.378906 187.148438 205.886719 164.402344 205.886719 C 141.65625 205.886719 123.152344 187.382812 123.152344 164.632812 Z M 123.152344 164.632812 " fill-opacity="1" fill-rule="nonzero"/></g><path fill="#2b2b2b" d="M 183.585938 145.332031 C 193.515625 155.265625 197.972656 168.265625 196.566406 179.789062 C 198.417969 175.445312 199.445312 170.667969 199.445312 165.652344 C 199.445312 145.734375 183.296875 129.589844 163.378906 129.589844 C 158.542969 129.589844 153.929688 130.550781 149.710938 132.277344 C 161.085938 131.089844 173.820312 135.570312 183.585938 145.332031 Z M 183.585938 145.332031 " fill-opacity="1" fill-rule="nonzero"/></svg>